<?xml version="1.0" encoding="utf-8"?>
<!-- Generator: Adobe Illustrator 27.8.1, SVG Export Plug-In . SVG Version: 6.00 Build 0)  -->
<svg version="1.1" id="Layer_1" xmlns="http://www.w3.org/2000/svg" xmlns:xlink="http://www.w3.org/1999/xlink" x="0px" y="0px"
	 viewBox="0 0 128 128" style="enable-background:new 0 0 128 128;" xml:space="preserve">
<style type="text/css">
	.st0{fill:#231F20;}
</style>
<g>
	<g>
		<path class="st0" d="M120.4,106.61L96.36,82.24c5.34-8.05,8.46-17.74,8.46-28.14c0-27.9-22.4-50.61-49.91-50.61S5,26.19,5,54.09
			c0,27.9,22.4,50.61,49.91,50.61c9.97,0,19.27-2.98,27.07-8.12l0.73,0.74l23.43,23.75c3.94,3.99,10.33,3.99,14.27,0l0,0
			C124.34,117.07,124.34,110.6,120.4,106.61z M78.6,64.22c-2.72,6.51-7.98,11.69-14.51,14.21c-2.85,1.12-5.94,1.73-9.18,1.73
			c-14.18,0-25.71-11.7-25.71-26.07s11.54-26.07,25.71-26.07s25.71,11.7,25.71,26.07C80.62,57.69,79.9,61.11,78.6,64.22z"/>
		<rect x="40.71" y="51.42" width="28.16" height="5.71"/>
	</g>
</g>
</svg>
