<?xml version="1.0" encoding="UTF-8"?><svg xmlns="http://www.w3.org/2000/svg" viewBox="0 0 91.78 121.55"><defs><style>.cls-1{mix-blend-mode:screen;}.cls-1,.cls-2,.cls-3,.cls-4,.cls-5,.cls-6,.cls-7{stroke-width:0px;}.cls-1,.cls-2,.cls-7{fill:#f68f33;}.cls-2{mix-blend-mode:multiply;opacity:.5;}.cls-8{isolation:isolate;}.cls-3{fill:#5e2a00;}.cls-4{fill:#ad561f;}.cls-5{fill:#fbb035;}.cls-6{fill:#ffd074;}</style></defs><g class="cls-8"><g id="Layer_1"><path class="cls-7" d="M22.91,49.61v-4.89c0-13.64,9.33-29.49,21.35-29.49h3.17c12.03,0,21.35,15.85,21.35,29.49v4.89h12.85v-12.02c0-9.03-3.54-18.34-9.7-25.56C65.32,4.27,56.7,0,47.68,0h-3.67c-9.02,0-17.63,4.27-24.26,12.03-6.17,7.22-9.7,16.53-9.7,25.56v12.02h12.85Z"/><path class="cls-2" d="M71.94,12.03c-.56-.66-1.14-1.29-1.74-1.9.32.73.53,1.5.59,2.3.13,2.06-.81,4.32-2.44,5.62-1.52,1.21-3.38,1.22-5.12.48-1.24-.53-2.29-1.33-3.42-2.04-1.28-.8-2.64-1.5-4.06-2.04-2.77-1.06-5.72-1.62-8.68-1.65-5.35-.06-10.81,1.35-15.19,4.49-4.05,2.9-7.08,7.04-9.23,11.5-1.5,3.11-2.08,6.75-4.38,9.43-.96,1.12-2.29,1.93-3.81,1.61-1.65-.35-2.89-1.43-3.52-2.99-.39-.97-.59-1.96-.68-2.98-.13,1.25-.2,2.49-.2,3.73v12.02h12.85v-4.89c0-13.64,9.33-29.49,21.35-29.49h3.17c12.03,0,21.35,15.85,21.35,29.49v4.89h12.85v-12.02c0-9.03-3.54-18.34-9.7-25.56Z"/><rect class="cls-2" x="68.79" y="45.29" width="12.85" height="4.31"/><rect class="cls-2" x="10.06" y="45.29" width="12.85" height="4.31"/><path class="cls-7" d="M91.52,51.12c-.29-.72-.77-1.43-1.38-1.91-.89-.69-1.91-.98-2.95-1.21H4.23c-1.11.17-2.19.54-2.98,1.28-.69.65-1.09,1.38-1.21,2.32-.02.14-.02.32-.04.49v17.76c0,68.08,91.78,69.79,91.78,0v-17.85c-.07-.3-.14-.6-.26-.88Z"/><path class="cls-5" d="M89.62,52.15c-.28-.66-.74-1.32-1.33-1.77-.85-.64-1.83-.91-2.84-1.12H5.77c-1.07.16-2.1.5-2.87,1.19-.66.6-1.05,1.28-1.16,2.14-.02.13-.02.29-.03.45v16.44c0,63.01,88.16,64.59,88.16,0v-16.52c-.07-.28-.14-.55-.25-.82Z"/><path class="cls-6" d="M85.88,53.27c-.26-.56-.68-1.13-1.22-1.51-.78-.55-1.69-.77-2.61-.96H8.64c-.98.14-1.94.42-2.64,1.01-.61.51-.97,1.09-1.07,1.83-.01.11-.02.25-.03.39v14.02c0,53.73,81.21,55.08,81.21,0v-14.09c-.06-.24-.13-.47-.23-.7Z"/><path class="cls-4" d="M56.72,71.07c0-5.65-4.85-10.23-10.82-10.23s-10.82,4.58-10.82,10.23c0,4.32,2.84,8.01,6.86,9.51l-7.8,23.36h22.58l-7.08-23.28c4.13-1.44,7.09-5.18,7.09-9.59Z"/><path class="cls-4" d="M38.01,71.07c0-5.18,4.07-9.45,9.35-10.13-.48-.06-.97-.1-1.47-.1-5.98,0-10.82,4.58-10.82,10.23,0,4.32,2.84,8.01,6.86,9.51l-7.8,23.36h2.95l7.8-23.36c-4.02-1.5-6.86-5.18-6.86-9.51Z"/><path class="cls-3" d="M56.72,71.07c0-5.18-4.07-9.45-9.35-10.13-5.28.68-9.35,4.96-9.35,10.13,0,4.32,2.84,8.01,6.86,9.51l-7.8,23.36h19.63l-7.08-23.28c4.13-1.44,7.09-5.18,7.09-9.59Z"/><path class="cls-1" d="M11.66,32.77S17.13.15,51.01,1.41c0,0-30.1,2.21-39.36,31.36Z"/><path class="cls-1" d="M7.72,54.7s-1.07,2.74.16,5.13c1.24,2.4,14.95-1.15,14.62-4.41-.33-3.25-12.72-5.69-14.78-.73Z"/><path class="cls-1" d="M7.38,66.29s-.53,2.44.08,4.58c.61,2.14,7.43-1.03,7.27-3.93-.16-2.9-6.33-5.08-7.35-.65Z"/></g></g></svg>