<?xml version="1.0" encoding="utf-8"?>
<!-- Generator: Adobe Illustrator 27.8.1, SVG Export Plug-In . SVG Version: 6.00 Build 0)  -->
<svg version="1.1" id="Layer_1" xmlns="http://www.w3.org/2000/svg" xmlns:xlink="http://www.w3.org/1999/xlink" x="0px" y="0px"
	 viewBox="0 0 128 128" style="enable-background:new 0 0 128 128;" xml:space="preserve">
<style type="text/css">
	.st0{fill:#231F20;}
</style>
<g>
	<g>
		<path class="st0" d="M119.76,104.95L95.9,81.09c5.3-7.88,8.4-17.36,8.4-27.55C104.3,26.23,82.07,4,54.76,4S5.22,26.23,5.22,53.54
			c0,27.31,22.23,49.54,49.54,49.54c9.9,0,19.13-2.92,26.87-7.95l0.72,0.72l23.25,23.25c3.91,3.91,10.25,3.91,14.16,0v0
			C123.67,115.2,123.67,108.86,119.76,104.95z M78.27,63.46c-2.7,6.38-7.92,11.44-14.4,13.91c-2.83,1.1-5.89,1.69-9.11,1.69
			c-14.07,0-25.52-11.45-25.52-25.52s11.45-25.52,25.52-25.52s25.52,11.45,25.52,25.52C80.28,57.06,79.56,60.41,78.27,63.46z"/>
		<polygon points="57.98,50.57 57.98,38.25 51.85,38.25 51.85,50.57 39.51,50.57 39.51,56.7 51.85,56.7 51.85,68.91 57.98,68.91 
			57.98,56.7 70.16,56.7 70.16,50.57 		"/>
	</g>
</g>
</svg>
